<svg height="2974" width="720" xmlns="http://www.w3.org/2000/svg">
<rect height="2974" fill="#555" width="720"></rect>
<text fill="#7f7" font-family="Courier New" font-size="12" xml:space="preserve">
<tspan x="10" y="26"></tspan>
<tspan x="10" y="42">&gt; npmdoc-csv@0.0.2 test /home/travis/build/npmdoc/node-npmdoc-csv</tspan>
<tspan x="10" y="58">&gt; (set -e; export PORT=$(utility2 shServerPortRandom); utility2 test test.js)</tspan>
<tspan x="10" y="74"></tspan>
<tspan x="10" y="90"></tspan>
<tspan x="10" y="106">[MODE_BUILD=npmTest] - 2017-04-07T17:27:46Z - npm-testing /home/travis/build/npmdoc/node-npmdoc-\</tspan>
<tspan x="10" y="122">csv</tspan>
<tspan x="10" y="138"></tspan>
<tspan x="10" y="154"></tspan>
<tspan x="10" y="170">covering $ /home/travis/.nvm/versions/node/v6.10.2/bin/node /home/travis/build/npmdoc/node-npmdo\</tspan>
<tspan x="10" y="186">c-csv/test.js</tspan>
<tspan x="10" y="202">merging file:///home/travis/build/npmdoc/node-npmdoc-csv/tmp/build/test-report.json to test-repo\</tspan>
<tspan x="10" y="218">rt</tspan>
<tspan x="10" y="234">&gt; server listening on http-port 54054</tspan>
<tspan x="10" y="250">created apidoc file:///home/travis/build/npmdoc/node-npmdoc-csv/tmp/build/apidoc.html</tspan>
<tspan x="10" y="266"></tspan>
<tspan x="10" y="282"></tspan>
<tspan x="10" y="298">browserTest - created electron entry-page /home/travis/build/npmdoc/node-npmdoc-csv/tmp/electron\</tspan>
<tspan x="10" y="314">.15b497529b60.40c9b3bb62277.html</tspan>
<tspan x="10" y="330"></tspan>
<tspan x="10" y="346">[node test-case 1 of 6 passed] - testCase_buildLib_default</tspan>
<tspan x="10" y="362">[node test-case 2 of 6 passed] - testCase_buildReadme_default</tspan>
<tspan x="10" y="378">[node test-case 3 of 6 passed] - testCase_buildTest_default</tspan>
<tspan x="10" y="394"></tspan>
<tspan x="10" y="410">browserTest - created electron entry-page /home/travis/build/npmdoc/node-npmdoc-csv/tmp/electron\</tspan>
<tspan x="10" y="426">.15b497529f80.7fc0a71fd779c.html</tspan>
<tspan x="10" y="442"></tspan>
<tspan x="10" y="458">OMH,ONKCHHJMJADOA</tspan>
<tspan x="10" y="474">D,GEACHIN</tspan>
<tspan x="10" y="490">NNMIN,CGFDKB</tspan>
<tspan x="10" y="506">NIL,JNNMJADNMINL</tspan>
<tspan x="10" y="522">KB,DMIM</tspan>
<tspan x="10" y="538">FENL,JN</tspan>
<tspan x="10" y="554">OPEMIKDMIOMFCKEP,MIJ</tspan>
<tspan x="10" y="570">BGIJADNN,FENLEOMIKBHLDK</tspan>
<tspan x="10" y="586">B,LF</tspan>
<tspan x="10" y="602">GGEBFAEAC,ILEO</tspan>
<tspan x="10" y="618">IKDOAAC,HKPD</tspan>
<tspan x="10" y="634">OPENJ,OPDLENLDJOAAABFP</tspan>
<tspan x="10" y="650">INJNMJPBHL,IK</tspan>
<tspan x="10" y="666">JPBHKCHHJN,FDKCHHIKEAABEM</tspan>
<tspan x="10" y="682">KDNLH,DKACIL</tspan>
<tspan x="10" y="698">HGGDOABEMIJP,ADLHKCGF</tspan>
<tspan x="10" y="714">MG,MJPBGIJBGG</tspan>
<tspan x="10" y="730">DKCHJONKCHI,JOPEOMG</tspan>
<tspan x="10" y="746">ABFCJPBHKCH,OMILGHHILFCIK</tspan>
<tspan x="10" y="762">Xlib:  extension "RANDR" missing on display ":99.0".</tspan>
<tspan x="10" y="778">LHKPDLEPBF,MG</tspan>
<tspan x="10" y="794">OMH,ONKCHHJMJADOA</tspan>
<tspan x="10" y="810">D,GEACHIN</tspan>
<tspan x="10" y="826">NNMIN,CGFDKB</tspan>
<tspan x="10" y="842">NIL,JNNMJADNMINL</tspan>
<tspan x="10" y="858">KB,DMIM</tspan>
<tspan x="10" y="874">FENL,JN</tspan>
<tspan x="10" y="890">OPEMIKDMIOMFCKEP,MIJ</tspan>
<tspan x="10" y="906">BGIJADNN,FENLEOMIKBHLDK</tspan>
<tspan x="10" y="922">B,LF</tspan>
<tspan x="10" y="938">GGEBFAEAC,ILEO</tspan>
<tspan x="10" y="954">IKDOAAC,HKPD</tspan>
<tspan x="10" y="970">OPENJ,OPDLENLDJOAAABFP</tspan>
<tspan x="10" y="986">INJNMJPBHL,IK</tspan>
<tspan x="10" y="1002">JPBHKCHHJN,FDKCHHIKEAABEM</tspan>
<tspan x="10" y="1018">KDNLH,DKACIL</tspan>
<tspan x="10" y="1034">HGGDOABEMIJP,ADLHKCGF</tspan>
<tspan x="10" y="1050">MG,MJPBGIJBGG</tspan>
<tspan x="10" y="1066">DKCHJONKCHI,JOPEOMG</tspan>
<tspan x="10" y="1082">ABFCJPBHKCH,OMILGHHILFCIK</tspan>
<tspan x="10" y="1098">LHKPDLEPBF,MG</tspan>
<tspan x="10" y="1114">=&gt; 20 records</tspan>
<tspan x="10" y="1130">OMH,ONKCHHJMJADOA</tspan>
<tspan x="10" y="1146">D,GEACHIN</tspan>
<tspan x="10" y="1162">NNMIN,CGFDKB</tspan>
<tspan x="10" y="1178">NIL,JNNMJADNMINL</tspan>
<tspan x="10" y="1194">KB,DMIM</tspan>
<tspan x="10" y="1210">FENL,JN</tspan>
<tspan x="10" y="1226">OPEMIKDMIOMFCKEP,MIJ</tspan>
<tspan x="10" y="1242">BGIJADNN,FENLEOMIKBHLDK</tspan>
<tspan x="10" y="1258">B,LF</tspan>
<tspan x="10" y="1274">GGEBFAEAC,ILEO</tspan>
<tspan x="10" y="1290">IKDOAAC,HKPD</tspan>
<tspan x="10" y="1306">OPENJ,OPDLENLDJOAAABFP</tspan>
<tspan x="10" y="1322">INJNMJPBHL,IK</tspan>
<tspan x="10" y="1338">JPBHKCHHJN,FDKCHHIKEAABEM</tspan>
<tspan x="10" y="1354">KDNLH,DKACIL</tspan>
<tspan x="10" y="1370">HGGDOABEMIJP,ADLHKCGF</tspan>
<tspan x="10" y="1386">MG,MJPBGIJBGG</tspan>
<tspan x="10" y="1402">DKCHJONKCHI,JOPEOMG</tspan>
<tspan x="10" y="1418">ABFCJPBHKCH,OMILGHHILFCIK</tspan>
<tspan x="10" y="1434">LHKPDLEPBF,MG</tspan>
<tspan x="10" y="1450">Xlib:  extension "RANDR" missing on display ":99.0".</tspan>
<tspan x="10" y="1466">merging file:///home/travis/build/npmdoc/node-npmdoc-csv/tmp/build/test-report.json to test-repo\</tspan>
<tspan x="10" y="1482">rt</tspan>
<tspan x="10" y="1498">Xlib:  extension "RANDR" missing on display ":99.0".</tspan>
<tspan x="10" y="1514">[4765:0407/172747:WARNING:audio_manager.cc(314)] Multiple instances of AudioManager detected</tspan>
<tspan x="10" y="1530">[4765:0407/172747:WARNING:audio_manager.cc(275)] Multiple instances of AudioManager detected</tspan>
<tspan x="10" y="1546">[4797:0407/172747:ERROR:sandbox_linux.cc(343)] InitializeSandbox() called with multiple threads \</tspan>
<tspan x="10" y="1562">in process gpu-process. </tspan>
<tspan x="10" y="1578">&gt; merging file:///home/travis/build/npmdoc/node-npmdoc-csv/tmp/build/test-report.json to test-re\</tspan>
<tspan x="10" y="1594">port</tspan>
<tspan x="10" y="1610">server listening on http-port 49056</tspan>
<tspan x="10" y="1626">Xlib:  extension "RANDR" missing on display ":99.0".</tspan>
<tspan x="10" y="1642">[4765:0407/172747:ERROR:browser_gpu_channel_host_factory.cc(131)] Failed to create channel.</tspan>
<tspan x="10" y="1658">[4770:0407/172747:WARNING:audio_manager.cc(314)] Multiple instances of AudioManager detected</tspan>
<tspan x="10" y="1674">[4770:0407/172747:WARNING:audio_manager.cc(275)] Multiple instances of AudioManager detected</tspan>
<tspan x="10" y="1690">[4827:0407/172748:ERROR:sandbox_linux.cc(343)] InitializeSandbox() called with multiple threads \</tspan>
<tspan x="10" y="1706">in process gpu-process. </tspan>
<tspan x="10" y="1722">[4770:0407/172748:ERROR:browser_gpu_channel_host_factory.cc(131)] Failed to create channel.</tspan>
<tspan x="10" y="1738"></tspan>
<tspan x="10" y="1754">browserTest - opened url /home/travis/build/npmdoc/node-npmdoc-csv/tmp/build/apidoc.html</tspan>
<tspan x="10" y="1770"></tspan>
<tspan x="10" y="1786"></tspan>
<tspan x="10" y="1802">browserTest - opened url http://127.0.0.1:54054?modeTest=1</tspan>
<tspan x="10" y="1818"></tspan>
<tspan x="10" y="1834">[4770:0407/172749:INFO:CONSOLE(250)] "----------|-----------|-----------|-----------|-----------\</tspan>
<tspan x="10" y="1850">|</tspan>
<tspan x="10" y="1866">File      |   % Stmts |% Branches |   % Funcs |   % Lines |</tspan>
<tspan x="10" y="1882">----------|-----------|-----------|-----------|-----------|</tspan>
<tspan x="10" y="1898">----------|-----------|-----------|-----------|-----------|</tspan>
<tspan x="10" y="1914">All files |       100 |       100 |       100 |       100 |</tspan>
<tspan x="10" y="1930">----------|-----------|-----------|-----------|-----------|</tspan>
<tspan x="10" y="1946">", source: file:///home/travis/build/npmdoc/node-npmdoc-csv/tmp/electron.15b497529f80.7fc0a71fd7\</tspan>
<tspan x="10" y="1962">79c.html (250)</tspan>
<tspan x="10" y="1978">[4770:0407/172749:INFO:CONSOLE(250)] "created coverage file:///tmp/build/coverage.html/index.htm\</tspan>
<tspan x="10" y="1994">l", source: file:///home/travis/build/npmdoc/node-npmdoc-csv/tmp/electron.15b497529f80.7fc0a71fd\</tspan>
<tspan x="10" y="2010">779c.html (250)</tspan>
<tspan x="10" y="2026">[node test-case 4 of 6 passed] - testCase_buildApp_default</tspan>
<tspan x="10" y="2042"></tspan>
<tspan x="10" y="2058">browserTest - created screenCapture file:///home/travis/build/npmdoc/node-npmdoc-csv/tmp/build/s\</tspan>
<tspan x="10" y="2074">creenCapture.npmTest.browser._2Fhome_2Ftravis_2Fbuild_2Fnpmdoc_2Fnode-npmdoc-csv_2Ftmp_2Fbuild_2\</tspan>
<tspan x="10" y="2090">Fapidoc.html.png</tspan>
<tspan x="10" y="2106"></tspan>
<tspan x="10" y="2122">browserTest - created screenCapture file:///home/travis/build/npmdoc/node-npmdoc-csv/tmp/build/s\</tspan>
<tspan x="10" y="2138">creenCapture.npmTest.browser._2Fhome_2Ftravis_2Fbuild_2Fnpmdoc_2Fnode-npmdoc-csv_2Ftmp_2Fbuild_2\</tspan>
<tspan x="10" y="2154">Fapidoc.html.html</tspan>
<tspan x="10" y="2170"></tspan>
<tspan x="10" y="2186">browserTest - exit-code 0 - /home/travis/build/npmdoc/node-npmdoc-csv/tmp/build/apidoc.html</tspan>
<tspan x="10" y="2202"></tspan>
<tspan x="10" y="2218">[node test-case 5 of 6 passed] - testCase_buildApidoc_default</tspan>
<tspan x="10" y="2234"></tspan>
<tspan x="10" y="2250">browserTest - created screenCapture file:///home/travis/build/npmdoc/node-npmdoc-csv/tmp/build/s\</tspan>
<tspan x="10" y="2266">creenCapture.npmTest.browser..png</tspan>
<tspan x="10" y="2282"></tspan>
<tspan x="10" y="2298">browserTest - created screenCapture file:///home/travis/build/npmdoc/node-npmdoc-csv/tmp/build/s\</tspan>
<tspan x="10" y="2314">creenCapture.npmTest.browser..html</tspan>
<tspan x="10" y="2330"></tspan>
<tspan x="10" y="2346">browserTest - exit-code 0 - http://127.0.0.1:54054?modeTest=1</tspan>
<tspan x="10" y="2362"></tspan>
<tspan x="10" y="2378"></tspan>
<tspan x="10" y="2394">browserTest - merged coverage from /home/travis/build/npmdoc/node-npmdoc-csv/tmp/coverage.npmTes\</tspan>
<tspan x="10" y="2410">t.browser.%2F.json</tspan>
<tspan x="10" y="2426"></tspan>
<tspan x="10" y="2442"></tspan>
<tspan x="10" y="2458">browserTest - merging test-report from /home/travis/build/npmdoc/node-npmdoc-csv/tmp/test-report\</tspan>
<tspan x="10" y="2474">.npmTest.browser.%2F.json</tspan>
<tspan x="10" y="2490"></tspan>
<tspan x="10" y="2506">[node test-case 6 of 6 passed] - testCase_webpage_default</tspan>
<tspan x="10" y="2522">------------------------|-----------|-----------|-----------|-----------|</tspan>
<tspan x="10" y="2538">File                    |   % Stmts |% Branches |   % Funcs |   % Lines |</tspan>
<tspan x="10" y="2554">------------------------|-----------|-----------|-----------|-----------|</tspan>
<tspan x="10" y="2570">   node-npmdoc-csv/     |       100 |       100 |       100 |       100 |</tspan>
<tspan x="10" y="2586">      example.js        |       100 |       100 |       100 |       100 |</tspan>
<tspan x="10" y="2602">      lib.npmdoc_csv.js |       100 |       100 |       100 |       100 |</tspan>
<tspan x="10" y="2618">      test.js           |       100 |       100 |       100 |       100 |</tspan>
<tspan x="10" y="2634">------------------------|-----------|-----------|-----------|-----------|</tspan>
<tspan x="10" y="2650">All files               |       100 |       100 |       100 |       100 |</tspan>
<tspan x="10" y="2666">------------------------|-----------|-----------|-----------|-----------|</tspan>
<tspan x="10" y="2682"></tspan>
<tspan x="10" y="2698">created coverage file:///home/travis/build/npmdoc/node-npmdoc-csv/tmp/build/coverage.html/index.\</tspan>
<tspan x="10" y="2714">html</tspan>
<tspan x="10" y="2730">merging file:///home/travis/build/npmdoc/node-npmdoc-csv/tmp/build/test-report.json to test-repo\</tspan>
<tspan x="10" y="2746">rt</tspan>
<tspan x="10" y="2762"></tspan>
<tspan x="10" y="2778">-------------------------------------------------------</tspan>
<tspan x="10" y="2794">| test-report - buildNpmdoc - node - linux v6.10.2 - 2017-04-07T17:27:25.554Z</tspan>
<tspan x="10" y="2810">|   36489 ms            0 failed        6 passed      |</tspan>
<tspan x="10" y="2826">-------------------------------------------------------</tspan>
<tspan x="10" y="2842"></tspan>
<tspan x="10" y="2858">created test-report file:///home/travis/build/npmdoc/node-npmdoc-csv/tmp/build/test-report.html</tspan>
<tspan x="10" y="2874"></tspan>
<tspan x="10" y="2890"></tspan>
<tspan x="10" y="2906">npmTest - 0 failed tests</tspan>
<tspan x="10" y="2922"></tspan>
<tspan x="10" y="2938"></tspan>
<tspan x="10" y="2954">[MODE_BUILD=npmTest] - 2017-04-07T17:28:05Z - EXIT_CODE - 0</tspan>
</text>
</svg>
