<svg height="2974" width="720" xmlns="http://www.w3.org/2000/svg">
<rect height="2974" fill="#555" width="720"></rect>
<text fill="#7f7" font-family="Courier New" font-size="12" xml:space="preserve">
<tspan x="10" y="26"></tspan>
<tspan x="10" y="42">&gt; npmdoc-csv@0.0.3 test /home/travis/build/npmdoc/node-npmdoc-csv</tspan>
<tspan x="10" y="58">&gt; (set -e; export PORT=$(utility2 shServerPortRandom); utility2 test test.js)</tspan>
<tspan x="10" y="74"></tspan>
<tspan x="10" y="90"></tspan>
<tspan x="10" y="106">[MODE_BUILD=npmTest] - 2017-04-07T17:29:14Z - npm-testing /home/travis/build/npmdoc/node-npmdoc-\</tspan>
<tspan x="10" y="122">csv</tspan>
<tspan x="10" y="138"></tspan>
<tspan x="10" y="154"></tspan>
<tspan x="10" y="170">covering $ /home/travis/.nvm/versions/node/v6.10.2/bin/node /home/travis/build/npmdoc/node-npmdo\</tspan>
<tspan x="10" y="186">c-csv/test.js</tspan>
<tspan x="10" y="202">merging file:///home/travis/build/npmdoc/node-npmdoc-csv/tmp/build/test-report.json to test-repo\</tspan>
<tspan x="10" y="218">rt</tspan>
<tspan x="10" y="234">&gt; server listening on http-port 50379</tspan>
<tspan x="10" y="250">created apidoc file:///home/travis/build/npmdoc/node-npmdoc-csv/tmp/build/apidoc.html</tspan>
<tspan x="10" y="266"></tspan>
<tspan x="10" y="282"></tspan>
<tspan x="10" y="298">browserTest - created electron entry-page /home/travis/build/npmdoc/node-npmdoc-csv/tmp/electron\</tspan>
<tspan x="10" y="314">.15b497680f50.99763280dbd5b.html</tspan>
<tspan x="10" y="330"></tspan>
<tspan x="10" y="346">[node test-case 1 of 6 passed] - testCase_buildLib_default</tspan>
<tspan x="10" y="362">[node test-case 2 of 6 passed] - testCase_buildReadme_default</tspan>
<tspan x="10" y="378">[node test-case 3 of 6 passed] - testCase_buildTest_default</tspan>
<tspan x="10" y="394"></tspan>
<tspan x="10" y="410">browserTest - created electron entry-page /home/travis/build/npmdoc/node-npmdoc-csv/tmp/electron\</tspan>
<tspan x="10" y="426">.15b497681310.42ad79c780eb6.html</tspan>
<tspan x="10" y="442"></tspan>
<tspan x="10" y="458">OMH,ONKCHHJMJADOA</tspan>
<tspan x="10" y="474">D,GEACHIN</tspan>
<tspan x="10" y="490">NNMIN,CGFDKB</tspan>
<tspan x="10" y="506">NIL,JNNMJADNMINL</tspan>
<tspan x="10" y="522">KB,DMIM</tspan>
<tspan x="10" y="538">FENL,JN</tspan>
<tspan x="10" y="554">OPEMIKDMIOMFCKEP,MIJ</tspan>
<tspan x="10" y="570">BGIJADNN,FENLEOMIKBHLDK</tspan>
<tspan x="10" y="586">B,LF</tspan>
<tspan x="10" y="602">GGEBFAEAC,ILEO</tspan>
<tspan x="10" y="618">IKDOAAC,HKPD</tspan>
<tspan x="10" y="634">OPENJ,OPDLENLDJOAAABFP</tspan>
<tspan x="10" y="650">INJNMJPBHL,IK</tspan>
<tspan x="10" y="666">JPBHKCHHJN,FDKCHHIKEAABEM</tspan>
<tspan x="10" y="682">KDNLH,DKACIL</tspan>
<tspan x="10" y="698">HGGDOABEMIJP,ADLHKCGF</tspan>
<tspan x="10" y="714">MG,MJPBGIJBGG</tspan>
<tspan x="10" y="730">DKCHJONKCHI,JOPEOMG</tspan>
<tspan x="10" y="746">ABFCJPBHKCH,OMILGHHILFCIK</tspan>
<tspan x="10" y="762">LHKPDLEPBF,MG</tspan>
<tspan x="10" y="778">OMH,ONKCHHJMJADOA</tspan>
<tspan x="10" y="794">D,GEACHIN</tspan>
<tspan x="10" y="810">NNMIN,CGFDKB</tspan>
<tspan x="10" y="826">NIL,JNNMJADNMINL</tspan>
<tspan x="10" y="842">KB,DMIM</tspan>
<tspan x="10" y="858">FENL,JN</tspan>
<tspan x="10" y="874">OPEMIKDMIOMFCKEP,MIJ</tspan>
<tspan x="10" y="890">BGIJADNN,FENLEOMIKBHLDK</tspan>
<tspan x="10" y="906">B,LF</tspan>
<tspan x="10" y="922">GGEBFAEAC,ILEO</tspan>
<tspan x="10" y="938">IKDOAAC,HKPD</tspan>
<tspan x="10" y="954">OPENJ,OPDLENLDJOAAABFP</tspan>
<tspan x="10" y="970">INJNMJPBHL,IK</tspan>
<tspan x="10" y="986">JPBHKCHHJN,FDKCHHIKEAABEM</tspan>
<tspan x="10" y="1002">KDNLH,DKACIL</tspan>
<tspan x="10" y="1018">HGGDOABEMIJP,ADLHKCGF</tspan>
<tspan x="10" y="1034">MG,MJPBGIJBGG</tspan>
<tspan x="10" y="1050">DKCHJONKCHI,JOPEOMG</tspan>
<tspan x="10" y="1066">ABFCJPBHKCH,OMILGHHILFCIK</tspan>
<tspan x="10" y="1082">LHKPDLEPBF,MG</tspan>
<tspan x="10" y="1098">=&gt; 20 records</tspan>
<tspan x="10" y="1114">OMH,ONKCHHJMJADOA</tspan>
<tspan x="10" y="1130">D,GEACHIN</tspan>
<tspan x="10" y="1146">NNMIN,CGFDKB</tspan>
<tspan x="10" y="1162">NIL,JNNMJADNMINL</tspan>
<tspan x="10" y="1178">KB,DMIM</tspan>
<tspan x="10" y="1194">FENL,JN</tspan>
<tspan x="10" y="1210">OPEMIKDMIOMFCKEP,MIJ</tspan>
<tspan x="10" y="1226">BGIJADNN,FENLEOMIKBHLDK</tspan>
<tspan x="10" y="1242">B,LF</tspan>
<tspan x="10" y="1258">GGEBFAEAC,ILEO</tspan>
<tspan x="10" y="1274">IKDOAAC,HKPD</tspan>
<tspan x="10" y="1290">OPENJ,OPDLENLDJOAAABFP</tspan>
<tspan x="10" y="1306">INJNMJPBHL,IK</tspan>
<tspan x="10" y="1322">JPBHKCHHJN,FDKCHHIKEAABEM</tspan>
<tspan x="10" y="1338">KDNLH,DKACIL</tspan>
<tspan x="10" y="1354">HGGDOABEMIJP,ADLHKCGF</tspan>
<tspan x="10" y="1370">MG,MJPBGIJBGG</tspan>
<tspan x="10" y="1386">DKCHJONKCHI,JOPEOMG</tspan>
<tspan x="10" y="1402">ABFCJPBHKCH,OMILGHHILFCIK</tspan>
<tspan x="10" y="1418">LHKPDLEPBF,MG</tspan>
<tspan x="10" y="1434">Xlib:  extension "RANDR" missing on display ":99.0".</tspan>
<tspan x="10" y="1450">Xlib:  extension "RANDR" missing on display ":99.0".</tspan>
<tspan x="10" y="1466">merging file:///home/travis/build/npmdoc/node-npmdoc-csv/tmp/build/test-report.json to test-repo\</tspan>
<tspan x="10" y="1482">rt</tspan>
<tspan x="10" y="1498">Xlib:  extension "RANDR" missing on display ":99.0".</tspan>
<tspan x="10" y="1514">[5669:0407/172915:WARNING:audio_manager.cc(314)] Multiple instances of AudioManager detected</tspan>
<tspan x="10" y="1530">[5669:0407/172915:WARNING:audio_manager.cc(275)] Multiple instances of AudioManager detected</tspan>
<tspan x="10" y="1546">[5699:0407/172915:ERROR:sandbox_linux.cc(343)] InitializeSandbox() called with multiple threads \</tspan>
<tspan x="10" y="1562">in process gpu-process. </tspan>
<tspan x="10" y="1578">&gt; server listening on http-port 59493</tspan>
<tspan x="10" y="1594">[5669:0407/172915:ERROR:browser_gpu_channel_host_factory.cc(131)] Failed to create channel.</tspan>
<tspan x="10" y="1610">merging file:///home/travis/build/npmdoc/node-npmdoc-csv/tmp/build/test-report.json to test-repo\</tspan>
<tspan x="10" y="1626">rt</tspan>
<tspan x="10" y="1642"></tspan>
<tspan x="10" y="1658">browserTest - opened url /home/travis/build/npmdoc/node-npmdoc-csv/tmp/build/apidoc.html</tspan>
<tspan x="10" y="1674"></tspan>
<tspan x="10" y="1690">Xlib:  extension "RANDR" missing on display ":99.0".</tspan>
<tspan x="10" y="1706">[5673:0407/172915:WARNING:audio_manager.cc(314)] Multiple instances of AudioManager detected</tspan>
<tspan x="10" y="1722">[5673:0407/172915:WARNING:audio_manager.cc(275)] Multiple instances of AudioManager detected</tspan>
<tspan x="10" y="1738">[5746:0407/172916:ERROR:sandbox_linux.cc(343)] InitializeSandbox() called with multiple threads \</tspan>
<tspan x="10" y="1754">in process gpu-process. </tspan>
<tspan x="10" y="1770">[5673:0407/172916:ERROR:browser_gpu_channel_host_factory.cc(131)] Failed to create channel.</tspan>
<tspan x="10" y="1786"></tspan>
<tspan x="10" y="1802">browserTest - opened url http://127.0.0.1:50379?modeTest=1</tspan>
<tspan x="10" y="1818"></tspan>
<tspan x="10" y="1834">[5673:0407/172917:INFO:CONSOLE(250)] "----------|-----------|-----------|-----------|-----------\</tspan>
<tspan x="10" y="1850">|</tspan>
<tspan x="10" y="1866">File      |   % Stmts |% Branches |   % Funcs |   % Lines |</tspan>
<tspan x="10" y="1882">----------|-----------|-----------|-----------|-----------|</tspan>
<tspan x="10" y="1898">----------|-----------|-----------|-----------|-----------|</tspan>
<tspan x="10" y="1914">All files |       100 |       100 |       100 |       100 |</tspan>
<tspan x="10" y="1930">----------|-----------|-----------|-----------|-----------|</tspan>
<tspan x="10" y="1946">", source: file:///home/travis/build/npmdoc/node-npmdoc-csv/tmp/electron.15b497681310.42ad79c780\</tspan>
<tspan x="10" y="1962">eb6.html (250)</tspan>
<tspan x="10" y="1978">[5673:0407/172917:INFO:CONSOLE(250)] "created coverage file:///tmp/build/coverage.html/index.htm\</tspan>
<tspan x="10" y="1994">l", source: file:///home/travis/build/npmdoc/node-npmdoc-csv/tmp/electron.15b497681310.42ad79c78\</tspan>
<tspan x="10" y="2010">0eb6.html (250)</tspan>
<tspan x="10" y="2026">[node test-case 4 of 6 passed] - testCase_buildApp_default</tspan>
<tspan x="10" y="2042"></tspan>
<tspan x="10" y="2058">browserTest - created screenCapture file:///home/travis/build/npmdoc/node-npmdoc-csv/tmp/build/s\</tspan>
<tspan x="10" y="2074">creenCapture.npmTest.browser._2Fhome_2Ftravis_2Fbuild_2Fnpmdoc_2Fnode-npmdoc-csv_2Ftmp_2Fbuild_2\</tspan>
<tspan x="10" y="2090">Fapidoc.html.png</tspan>
<tspan x="10" y="2106"></tspan>
<tspan x="10" y="2122">browserTest - created screenCapture file:///home/travis/build/npmdoc/node-npmdoc-csv/tmp/build/s\</tspan>
<tspan x="10" y="2138">creenCapture.npmTest.browser._2Fhome_2Ftravis_2Fbuild_2Fnpmdoc_2Fnode-npmdoc-csv_2Ftmp_2Fbuild_2\</tspan>
<tspan x="10" y="2154">Fapidoc.html.html</tspan>
<tspan x="10" y="2170"></tspan>
<tspan x="10" y="2186">browserTest - exit-code 0 - /home/travis/build/npmdoc/node-npmdoc-csv/tmp/build/apidoc.html</tspan>
<tspan x="10" y="2202"></tspan>
<tspan x="10" y="2218">[node test-case 5 of 6 passed] - testCase_buildApidoc_default</tspan>
<tspan x="10" y="2234"></tspan>
<tspan x="10" y="2250">browserTest - created screenCapture file:///home/travis/build/npmdoc/node-npmdoc-csv/tmp/build/s\</tspan>
<tspan x="10" y="2266">creenCapture.npmTest.browser..png</tspan>
<tspan x="10" y="2282"></tspan>
<tspan x="10" y="2298">browserTest - created screenCapture file:///home/travis/build/npmdoc/node-npmdoc-csv/tmp/build/s\</tspan>
<tspan x="10" y="2314">creenCapture.npmTest.browser..html</tspan>
<tspan x="10" y="2330"></tspan>
<tspan x="10" y="2346">browserTest - exit-code 0 - http://127.0.0.1:50379?modeTest=1</tspan>
<tspan x="10" y="2362"></tspan>
<tspan x="10" y="2378"></tspan>
<tspan x="10" y="2394">browserTest - merged coverage from /home/travis/build/npmdoc/node-npmdoc-csv/tmp/coverage.npmTes\</tspan>
<tspan x="10" y="2410">t.browser.%2F.json</tspan>
<tspan x="10" y="2426"></tspan>
<tspan x="10" y="2442"></tspan>
<tspan x="10" y="2458">browserTest - merging test-report from /home/travis/build/npmdoc/node-npmdoc-csv/tmp/test-report\</tspan>
<tspan x="10" y="2474">.npmTest.browser.%2F.json</tspan>
<tspan x="10" y="2490"></tspan>
<tspan x="10" y="2506">[node test-case 6 of 6 passed] - testCase_webpage_default</tspan>
<tspan x="10" y="2522">------------------------|-----------|-----------|-----------|-----------|</tspan>
<tspan x="10" y="2538">File                    |   % Stmts |% Branches |   % Funcs |   % Lines |</tspan>
<tspan x="10" y="2554">------------------------|-----------|-----------|-----------|-----------|</tspan>
<tspan x="10" y="2570">   node-npmdoc-csv/     |       100 |       100 |       100 |       100 |</tspan>
<tspan x="10" y="2586">      example.js        |       100 |       100 |       100 |       100 |</tspan>
<tspan x="10" y="2602">      lib.npmdoc_csv.js |       100 |       100 |       100 |       100 |</tspan>
<tspan x="10" y="2618">      test.js           |       100 |       100 |       100 |       100 |</tspan>
<tspan x="10" y="2634">------------------------|-----------|-----------|-----------|-----------|</tspan>
<tspan x="10" y="2650">All files               |       100 |       100 |       100 |       100 |</tspan>
<tspan x="10" y="2666">------------------------|-----------|-----------|-----------|-----------|</tspan>
<tspan x="10" y="2682"></tspan>
<tspan x="10" y="2698">created coverage file:///home/travis/build/npmdoc/node-npmdoc-csv/tmp/build/coverage.html/index.\</tspan>
<tspan x="10" y="2714">html</tspan>
<tspan x="10" y="2730">merging file:///home/travis/build/npmdoc/node-npmdoc-csv/tmp/build/test-report.json to test-repo\</tspan>
<tspan x="10" y="2746">rt</tspan>
<tspan x="10" y="2762"></tspan>
<tspan x="10" y="2778">-------------------------------------------------------</tspan>
<tspan x="10" y="2794">| test-report - buildNpmdoc - node - linux v6.10.2 - 2017-04-07T17:28:36.141Z</tspan>
<tspan x="10" y="2810">|   53786 ms            0 failed        6 passed      |</tspan>
<tspan x="10" y="2826">-------------------------------------------------------</tspan>
<tspan x="10" y="2842"></tspan>
<tspan x="10" y="2858">created test-report file:///home/travis/build/npmdoc/node-npmdoc-csv/tmp/build/test-report.html</tspan>
<tspan x="10" y="2874"></tspan>
<tspan x="10" y="2890"></tspan>
<tspan x="10" y="2906">npmTest - 0 failed tests</tspan>
<tspan x="10" y="2922"></tspan>
<tspan x="10" y="2938"></tspan>
<tspan x="10" y="2954">[MODE_BUILD=npmTest] - 2017-04-07T17:29:33Z - EXIT_CODE - 0</tspan>
</text>
</svg>
